<svg width="30" height="30" viewBox="0 0 30 30" fill="none" xmlns="http://www.w3.org/2000/svg">
    <path
        d="M5.77025 9C4.91705 9 4.28758 9.1671 3.80526 9.44022C3.80317 9.44139 3.80114 9.44293 3.79906 9.44414C3.08221 9.81889 2.71236 10.3907 2.45224 11.0045C1.87583 12.1612 1.57385 13.4674 0.235262 13.8842C0.183069 13.9004 0.131109 13.9153 0.0788574 13.9311V15.8574C0.131146 15.8732 0.183028 15.8893 0.235262 15.9056C2.80715 16.7063 0.749165 20.7897 5.77025 20.7897C5.79947 20.7897 5.83093 20.7884 5.86211 20.7871C5.91881 20.7884 5.976 20.7897 6.03465 20.7897C7.2348 20.7897 10.1303 19.7217 11.2457 19.7217H18.6041C19.7195 19.7217 22.615 20.7897 23.8151 20.7897C23.8738 20.7897 23.9309 20.7883 23.9877 20.7871C24.0189 20.7884 24.0504 20.7897 24.0796 20.7897C29.1006 20.7897 27.0426 16.7063 29.6145 15.9056C29.6668 15.8893 29.7186 15.8732 29.771 15.8574V13.9311C29.7187 13.9153 29.6668 13.9004 29.6145 13.8842C28.2759 13.4674 27.974 12.1612 27.3976 11.0045C27.1375 10.3907 26.7676 9.81889 26.0508 9.44414C26.0487 9.44293 26.0466 9.44143 26.0445 9.44022C25.5622 9.1671 24.9328 9 24.0796 9C24.0508 9 24.0207 9.00142 23.9902 9.00258C23.9327 9.00138 23.8746 9 23.8151 9C22.615 9 19.7195 10.068 18.6041 10.068H11.2457C10.1303 10.068 7.2348 9 6.03465 9C5.97517 9 5.91713 9.00142 5.85963 9.00258C5.82917 9.00138 5.79898 9 5.77025 9Z"
        fill="#D9BB7A" />
    <path
        d="M23.8885 9C23.6299 9 23.2931 9.05067 22.9122 9.12858V20.7483C23.2931 20.8262 23.6299 20.8768 23.8885 20.8768C23.9473 20.8768 24.0046 20.8754 24.0615 20.8742C24.0928 20.8755 24.1243 20.8768 24.1536 20.8768C24.7436 20.8768 25.2351 20.8203 25.6491 20.7194V9.2283C25.2431 9.0839 24.7539 9 24.1536 9C24.1248 9 24.0946 9.00145 24.064 9.00262C24.0064 9.00141 23.9481 9 23.8885 9Z"
        fill="#FFD700" />
    <path d="M14.3793 10.0759V19.8009H17.1161V10.0759H14.3793Z" fill="#A52A2A" />
    <path
        d="M9.87195 9.83972V20.0371C10.4399 19.9 10.9422 19.8009 11.2802 19.8009H12.6088V10.0759H11.2802C10.9422 10.0759 10.4399 9.97683 9.87195 9.83972Z"
        fill="#FFA500" />
    <path
        d="M5.78788 9C5.63955 9 5.49852 9.00464 5.36328 9.01443V20.8664C5.49904 20.8732 5.64021 20.8768 5.78788 20.8768C5.81718 20.8768 5.84874 20.8755 5.88002 20.8742C5.93688 20.8755 5.99426 20.8768 6.05309 20.8768C6.53657 20.8768 7.29512 20.7027 8.10134 20.495V9.38181C7.29512 9.17413 6.53657 9 6.05309 9C5.99342 9 5.9352 9.00145 5.87752 9.00262C5.84698 9.00141 5.8167 9 5.78788 9Z"
        fill="#FFA500" />
</svg>